<?xml version="1.0" encoding="utf-8"?>
<!-- Generator: Adobe Illustrator 16.0.0, SVG Export Plug-In . SVG Version: 6.00 Build 0)  -->
<!DOCTYPE svg PUBLIC "-//W3C//DTD SVG 1.1//EN" "http://www.w3.org/Graphics/SVG/1.1/DTD/svg11.dtd">
<svg version="1.1" xmlns="http://www.w3.org/2000/svg" xmlns:xlink="http://www.w3.org/1999/xlink" x="0px" y="0px" width="350px" height="250px" viewBox="0 0 350 250" enable-background="new 0 0 350 250" xml:space="preserve">
<g id="Layer_2">
	<line fill="none" stroke="#CCCCCC" stroke-width="3" x1="62.462" y1="42.585" x2="174.462" y2="108.143"/>
	<line fill="none" stroke="#CCCCCC" stroke-width="3" x1="174.462" y1="108.143" x2="281.461" y2="42.585"/>
	<line fill="none" stroke="#CCCCCC" stroke-width="3" x1="174.462" y1="108.143" x2="174.462" y2="211.143"/>
</g>
<g id="Layer_1">
	<circle fill="#D87" cx="174.462" cy="108.143" r="28.28"/>
	<text transform="matrix(1 0 0 1 153.5381 113)" fill="#FFFFFF" font-family="'Helvetica-Bold'" font-size="14">NODE</text>
		<text transform="matrix(0.8642 0.5031 -0.5031 0.8642 106.8491 62.4062)" fill="#333333" font-family="'Helvetica-Bold'" font-size="14">LINK</text>
		<text transform="matrix(0.8515 -0.5244 0.5244 0.8515 209.041 81.3706)" fill="#333333" font-family="'Helvetica-Bold'" font-size="14">LINK</text>
	<text transform="matrix(1 -0.0026 0.0026 1 179.9883 162.9062)" fill="#333333" font-family="'Helvetica-Bold'" font-size="14">LINK</text>
	<circle fill="#D87" cx="174.462" cy="211.143" r="28.28"/>
	<text transform="matrix(1 0 0 1 153.5381 216)" fill="#FFFFFF" font-family="'Helvetica-Bold'" font-size="14">NODE</text>
	<circle fill="#D87" cx="281.461" cy="42.585" r="28.28"/>
	<text transform="matrix(1 0 0 1 260.5381 47.4424)" fill="#FFFFFF" font-family="'Helvetica-Bold'" font-size="14">NODE</text>
	<circle fill="#D87" cx="62.462" cy="42.585" r="28.28"/>
	<text transform="matrix(1 0 0 1 41.5381 47.4424)" fill="#FFFFFF" font-family="'Helvetica-Bold'" font-size="14">NODE</text>
</g>
</svg>
